<svg width="62" height="59" viewBox="0 0 62 59" fill="none" xmlns="http://www.w3.org/2000/svg">
<path fill-rule="evenodd" clip-rule="evenodd" d="M61.7398 28.7672C61.7398 29.4243 61.6452 30.0329 61.4584 30.5953C61.2694 31.1579 60.9882 31.6741 60.6146 32.1422C60.2389 32.6125 59.817 32.9859 59.349 33.2671C58.8787 33.5484 58.3646 33.7834 57.8021 33.9702C58.0832 34.4404 58.3161 34.9327 58.505 35.4467C58.6917 35.9633 58.7862 36.5498 58.7862 37.2046C58.7862 37.7672 58.6916 38.3295 58.5048 38.8921C58.3159 39.4547 58.0829 39.971 57.8017 40.4389C57.4259 40.8145 57.004 41.1661 56.5359 41.4935C56.0657 41.8231 55.5976 42.0802 55.1297 42.267C55.4108 42.7372 55.6437 43.2512 55.8327 43.8138C56.0194 44.3764 56.1139 44.9388 56.1138 45.5014C56.1138 46.1582 56.0192 46.745 55.8325 47.2592C55.6434 47.7755 55.4105 48.2675 55.1293 48.7357C54.7535 49.2059 54.3317 49.6035 53.8635 49.9308C53.3934 50.2605 52.8791 50.4715 52.3167 50.5636C52.6902 51.0338 52.9714 51.5262 53.1603 52.0401C53.3471 52.5567 53.4415 53.1432 53.4414 53.798C53.4414 54.455 53.3008 55.1121 53.0195 55.7668C52.7382 56.4239 52.3625 56.9862 51.8943 57.4543C51.3319 57.9244 50.721 58.2979 50.0662 58.5791C49.4093 58.8604 48.7061 59.0009 47.9568 59.0008L29.3943 58.9998C28.7374 58.9997 27.9881 58.9076 27.1444 58.7184C26.3005 58.5317 25.4085 58.2503 24.4725 57.8745C23.5343 57.5932 22.596 57.2416 21.6601 56.8197C20.7219 56.3978 19.7836 55.9998 18.8476 55.6241C17.7226 55.1561 16.6196 54.6882 15.543 54.2176C14.4642 53.7497 13.6908 53.5144 13.2227 53.5144L0.425897 53.5136L0.427485 26.0919L1.55248 25.9512C6.89623 25.9515 10.5525 25.9517 12.5213 25.9519C13.365 25.9519 14.1384 25.8598 14.8416 25.6707C15.5446 25.4842 16.2698 25.1084 17.0213 24.5459C17.865 24.078 18.8253 23.421 19.9043 22.5775C20.981 21.7336 22.2708 20.7032 23.7715 19.4839C26.6765 17.0473 28.3884 13.9996 28.9049 10.3435C29.4193 6.68739 29.6787 4.57802 29.6787 4.01542C29.6788 3.45282 29.8194 2.91468 30.1007 2.39815C30.382 1.88418 30.7556 1.48429 31.2259 1.20298C31.6938 0.829568 32.186 0.570224 32.7024 0.42971C33.2165 0.288952 33.7087 0.218708 34.179 0.218736C34.9282 0.218779 35.6775 0.313311 36.4289 0.500198C37.1782 0.689097 37.8812 1.11126 38.5383 1.76601C39.193 2.42289 39.7093 3.29095 40.085 4.36757C40.4585 5.44649 40.6474 6.87696 40.6472 8.65663C40.6472 10.2518 40.5284 11.7746 40.2954 13.2269C40.0602 14.6816 39.7547 16.0636 39.3811 17.3754C39.0998 18.6892 38.7481 19.8847 38.3262 20.9612C37.9043 22.0401 37.5527 22.9542 37.2714 23.7034L56.3963 23.7045C57.2401 23.7046 57.9652 23.8232 58.5761 24.0562C59.1847 24.2912 59.7713 24.6428 60.3338 25.111C60.8018 25.5812 61.1533 26.1196 61.3883 26.7281C61.6213 27.3391 61.7399 28.018 61.7398 28.7672ZM56.3959 31.7202C56.864 31.7202 57.2858 31.6497 57.6615 31.5093C58.0351 31.3687 58.3163 31.1577 58.5053 30.8764C58.7866 30.5951 59.0196 30.292 59.2085 29.9626C59.3953 29.6352 59.4898 29.2373 59.4898 28.7671C59.4898 28.0179 59.2087 27.3609 58.6462 26.7985C58.0837 26.2358 57.3323 25.9545 56.3962 25.9544L47.9587 25.9539C47.9587 26.0483 47.9587 26.0483 47.9587 25.9539L33.4743 25.9531L34.3181 24.2656C36.9421 17.7971 38.2564 12.594 38.2567 8.65649C38.2568 5.56269 37.7405 3.75877 36.7101 3.24247C35.6773 2.72812 34.8337 2.46894 34.1789 2.4689C33.8975 2.46889 33.4757 2.60941 32.9132 2.89065C32.3506 3.17194 32.0694 3.54769 32.0694 4.01556C32.0694 4.57816 32.0209 5.51628 31.9286 6.82808C31.8341 8.14213 31.5527 9.64052 31.0846 11.3281C30.6142 13.0156 29.9352 14.7513 29.0451 16.5311C28.1531 18.3128 26.9114 19.8598 25.3183 21.1715C23.7231 22.4853 22.3871 23.5859 21.3104 24.4759C20.2314 25.3678 19.2229 26.093 18.2868 26.6553C17.3485 27.2179 16.4102 27.6396 15.4742 27.9209C14.536 28.2021 13.5516 28.3426 12.5211 28.3426C11.7696 28.3425 10.9501 28.3425 10.0601 28.3424C9.16803 28.3424 8.25404 28.3423 7.31791 28.3423C6.4742 28.3422 5.65238 28.3422 4.85705 28.3421C4.05935 28.3421 3.38044 28.342 2.81795 28.342L2.81663 51.1233L13.2228 51.1239C13.8776 51.1239 14.7456 51.3348 15.8245 51.7567C16.901 52.1788 18.237 52.7194 19.8321 53.3742C20.5814 53.75 21.401 54.1477 22.293 54.5696C23.1829 54.9917 24.0507 55.3433 24.8945 55.6244C25.8306 55.9058 26.6743 56.1652 27.4257 56.3982C28.175 56.6332 28.8319 56.7499 29.3944 56.7499L45.0038 56.7508L47.9569 56.751C48.4249 56.751 48.8469 56.6586 49.2226 56.4697C49.5961 56.2829 49.9257 56.0479 50.207 55.7666C50.4882 55.5798 50.6992 55.2985 50.8398 54.9228C50.9805 54.5494 51.0508 54.1736 51.0508 53.7978C51.0509 53.33 50.9806 52.9323 50.84 52.6026C50.6994 52.2753 50.4885 51.9698 50.2073 51.6884C49.926 51.4074 49.5964 51.1963 49.2229 51.0557C48.8472 50.915 48.4252 50.8447 47.9573 50.8447L47.676 50.8446L47.6762 48.4539L50.9105 48.4541C51.2841 48.4541 51.6598 48.3839 52.0355 48.2434C52.4091 48.1027 52.7387 47.8919 53.02 47.6106C53.2067 47.3293 53.3936 47.002 53.5825 46.6262C53.7694 46.2528 53.8638 45.877 53.8638 45.5013C53.8638 45.1276 53.7694 44.7518 53.5826 44.3763C53.3937 44.0026 53.2069 43.6732 53.0202 43.3918C52.739 43.205 52.4094 43.0181 52.0359 42.8292C51.6601 42.6426 51.2844 42.5479 50.9108 42.5478L49.9265 42.5478L49.9266 40.1573L53.4422 40.1575C53.8158 40.1576 54.1915 40.0871 54.5673 39.9466C54.9409 39.8061 55.2705 39.595 55.5517 39.3138C55.833 39.0325 56.0659 38.7051 56.2549 38.3294C56.4417 37.9559 56.5361 37.5802 56.5362 37.2045C56.5362 36.7365 56.4418 36.3147 56.2551 35.9389C56.066 35.5652 55.8332 35.2842 55.552 35.095C55.2708 34.8137 54.9412 34.581 54.5676 34.3918C54.1919 34.2052 53.8161 34.1105 53.4426 34.1105L52.3176 34.1104L52.3178 31.7199L56.3959 31.7202Z" fill="#00A2FF"/>
</svg>
