<svg width="61" height="61" viewBox="0 0 61 61" fill="none" xmlns="http://www.w3.org/2000/svg">
<path fill-rule="evenodd" clip-rule="evenodd" d="M30.1548 0.633717C34.279 0.633956 38.1704 1.40757 41.8265 2.95456C45.4827 4.5018 48.6686 6.63554 51.3886 9.35352C54.1065 12.074 56.2398 15.2601 57.7865 18.9166C59.3332 22.5728 60.1064 26.4643 60.1062 30.5886C60.1059 34.7149 59.3322 38.6039 57.7852 42.2603C56.2381 45.9164 54.1043 49.1045 51.3862 51.8224C48.6658 54.5423 45.4796 56.6737 41.8233 58.2202C38.167 59.7668 34.2755 60.5402 30.1513 60.54C26.0248 60.5397 22.1357 59.7659 18.4796 58.2189C14.8234 56.6719 11.6353 54.5402 8.91747 51.8199C6.19744 49.1017 4.06619 45.9133 2.51956 42.2571C0.972876 38.6006 0.199652 34.7115 0.199891 30.5851C0.20013 26.4608 0.973805 22.5694 2.52092 18.9134C4.06797 15.2571 6.19959 12.0712 8.91993 9.35106C11.6381 6.6334 14.8264 4.50002 18.4828 2.95321C22.139 1.40664 26.0283 0.633478 30.1548 0.633717ZM30.1515 58.1493C33.9944 58.1495 37.5804 57.4247 40.9094 55.9703C44.2361 54.5179 47.1674 52.5736 49.6988 50.1347C52.1357 47.6037 54.0805 44.6749 55.5352 41.346C56.9878 38.0193 57.7153 34.4335 57.7156 30.5884C57.7158 26.7454 56.9887 23.1592 55.5364 19.8303C54.0821 16.5035 52.1377 13.5723 49.7011 11.0409C47.1699 8.60408 44.2389 6.65948 40.9124 5.20468C37.5835 3.75189 33.9976 3.02435 30.1547 3.02413C26.3094 3.0239 22.7234 3.75103 19.3966 5.20343C16.0677 6.65784 13.1386 8.60211 10.6072 11.0387C8.16819 13.5697 6.22345 16.5008 4.77091 19.8274C3.31607 23.1561 2.59071 26.7422 2.59049 30.5852C2.59026 34.4303 3.31521 38.0162 4.76966 41.343C6.22182 44.6722 8.16622 47.6011 10.605 50.1324C13.1361 52.5716 16.0649 54.5162 19.3937 55.969C22.7203 57.4238 26.3062 58.1491 30.1515 58.1493ZM45.2005 19.9001C45.4818 19.5266 45.8795 19.3378 46.3959 19.3378C46.91 19.3378 47.356 19.5267 47.7318 19.9002C48.013 20.2759 48.1536 20.722 48.1536 21.2362C48.1536 21.7525 47.9645 22.1504 47.5911 22.4317L27.0587 42.399C26.9641 42.5879 26.7993 42.7045 26.5664 42.7506C26.3313 42.7989 26.1204 42.8208 25.9336 42.8208C25.6523 42.8208 25.3931 42.7988 25.1601 42.7505C24.9251 42.7044 24.7603 42.5878 24.6679 42.3989L16.6528 34.3827C16.277 34.0092 16.0904 33.5633 16.0904 33.047C16.0904 32.5327 16.2771 32.1328 16.6529 31.8515C16.9343 31.4781 17.332 31.2892 17.8483 31.2892C18.3625 31.2893 18.8085 31.4782 19.1842 31.8517L25.9338 38.602L45.2005 19.9001Z" fill="#FF6363"/>
</svg>
