<svg width="58" height="57" viewBox="0 0 58 57" fill="none" xmlns="http://www.w3.org/2000/svg">
<path fill-rule="evenodd" clip-rule="evenodd" d="M57.4173 53.8789L54.4639 56.832L38.1524 40.5184C37.2141 41.3622 36.1836 42.1137 35.0586 42.7684C33.9335 43.4253 32.7601 43.9876 31.5428 44.4557C30.3234 44.9259 29.0335 45.2773 27.6755 45.5102C26.3154 45.7451 24.9795 45.8616 23.6677 45.8615C20.4795 45.8613 17.5022 45.2524 14.7382 44.0326C11.9719 42.8154 9.55716 41.1738 7.49628 39.1104C5.43312 37.0492 3.81608 34.6345 2.6451 31.868C1.47196 29.1038 0.887607 26.1727 0.887786 23.0789C0.88797 19.8929 1.47266 16.9155 2.64612 14.1493C3.81742 11.3853 5.43474 8.97052 7.49814 6.90735C9.55926 4.84642 11.9742 3.22926 14.7406 2.05614C17.5048 0.885271 20.4821 0.29863 23.6704 0.298814C26.7642 0.298993 29.693 0.885977 32.4594 2.05717C35.2235 3.2306 37.6381 4.84805 39.7013 6.90922C41.7622 8.97263 43.4034 11.3876 44.6227 14.1518C45.8398 16.918 46.4505 19.8955 46.4503 23.0815C46.4502 24.3953 46.3315 25.7313 46.0986 27.0892C45.8633 28.4494 45.5116 29.7392 45.0436 30.9563C44.5733 32.176 44.0108 33.347 43.356 34.4719C42.6988 35.5968 41.9495 36.6295 41.1057 37.5655L57.4173 53.8789ZM3.27843 23.079C3.27826 25.8915 3.79231 28.5172 4.82483 30.954C5.85519 33.3931 7.30754 35.5487 9.18388 37.4231C11.058 39.2997 13.2376 40.7763 15.7227 41.8531C18.2055 42.9321 20.8553 43.4707 23.6679 43.4708C26.4804 43.471 29.1039 42.9327 31.543 41.854C33.9798 40.7775 36.1354 39.3012 38.012 37.4248C39.8864 35.5505 41.363 33.3952 42.4421 30.9562C43.5189 28.5195 44.0595 25.8938 44.0596 23.0814C44.0598 20.2688 43.5195 17.621 42.443 15.1358C41.3642 12.6529 39.8879 10.4732 38.0136 8.59664C36.1373 6.72216 33.9818 5.26969 31.5452 4.23675C29.1062 3.20612 26.4827 2.68966 23.6702 2.68949C20.8577 2.68933 18.2078 3.20549 15.7248 4.23584C13.2396 5.26849 11.0599 6.72071 9.18555 8.59497C7.309 10.4713 5.85639 12.6508 4.82575 15.1336C3.79294 17.6187 3.27859 20.2665 3.27843 23.079Z" fill="#5474FD"/>
</svg>
